# xmcd
#
# Track frame offsets:
#	151
#	12634
#	21197
#	29197
#	39225
#	50254
#	60700
#	69693
#	79076
#	91237
#	101032
#	112179
#	121529
#	132183
#	140983
#	148870
#	158533
#	166993
#	176082
#	185547
#	193967
#	201143
#	210869
#	219437
#	229435
#	240352
#	249554
#	262079
#
# Disc length: 3656
#
# Revision: 1
# Processed by: cddbd v1.5.1PL0 Copyright (c) Steve Scherf et al.
# Submitted via: VisiTrax 2.9.9.209 - For more info visit www.synapsa.com
# Normalized: r0:DSETVAR1
#
DISCID=a00e461c
DTITLE=Various Artist - Dot Rock'N'Roll
DYEAR=1900
DGENRE=Country
TTITLE0=Sanford Clark - The Fool
TTITLE1=Leroy Van Dyke - Chicken Shack
TTITLE2=Mac Wiseman - Step It Up And Go
TTITLE3=Jimmy Dee and The Offbeats - You're Late Miss Kate
TTITLE4=Nervous Norvus - Transfusion
TTITLE5=Ray Campi - It Ain't Me
TTITLE6=Bop Denton - Playboy
TTITLE7=Dick Lory - Ballroom Baby
TTITLE8=Jimmy Ringo - I Like This Kind Of Music
TTITLE9=Danny Wolfe - Pucker Paint
TTITLE10=Gene Brown - Big Door
TTITLE11=Keith Courvale - Trapped Love
TTITLE12=Kay Cee Jones - Johnny, Johnny, Johnny
TTITLE13=Robin Luke - You Can't Stop Me From Dreaming
TTITLE14=Niki Sullivan - It's All Over
TTITLE15=Ray Sharpe - Oh, My Baby's Gone
TTITLE16=Danny Wolfe - Let's Flat Git It
TTITLE17=Snooky Lanson - Stop! Let Me Off The Bus
TTITLE18=Tommy Danton - Oh Yeah
TTITLE19=Joyce Paul - Baby You've Had It
TTITLE20=Bop Denton - Skinnie Minnie
TTITLE21=Mickey Gilley - Call Me Shorty
TTITLE22=Ray Sharpe - That's The Way I Feel
TTITLE23=Jimmy Newman - Carry On
TTITLE24=The Five Bops - Jiggerbuggin'
TTITLE25=Sanford Clarke - Modern Romance
TTITLE26=Billy Adams - You Heard Me Knocking
TTITLE27=Jimmy Dee and The Offbeats - Henrietta
EXTD=60:54
EXTT0=
EXTT1=
EXTT2=
EXTT3=
EXTT4=
EXTT5=
EXTT6=
EXTT7=
EXTT8=
EXTT9=
EXTT10=
EXTT11=
EXTT12=
EXTT13=
EXTT14=
EXTT15=
EXTT16=
EXTT17=
EXTT18=
EXTT19=
EXTT20=
EXTT21=
EXTT22=
EXTT23=
EXTT24=
EXTT25=
EXTT26=
EXTT27=
PLAYORDER=
